# xmcd
#
# Track frame offsets:
#	150
#	20340
#	44047
#	59441
#	77235
#	96588
#	114923
#	128938
#	151083
#	169357
#	187692
#	212296
#	231291
#	245096
#	264150
#	280234
#	292658
#	313093
#	331486
#
# Disc length: 4677 seconds
#
# Revision: 1
# Processed by: cddbd v1.5.2PL0 Copyright (c) Steve Scherf et al.
# Submitted via: audiograbber 1.83.01
#
DISCID=0b124313
DTITLE=Kathy Mattea - Big Bang Concert Series:(Live)
DYEAR=2017
DGENRE=Country
TTITLE0=455 Rocket
TTITLE1=Asking Us To Dance
TTITLE2=Beautiful Fool
TTITLE3=Clown In Your Rodeo
TTITLE4=Come From The Heart
TTITLE5=Dance A Little Closer
TTITLE6=Eighteen Wheels And A Dozen Roses
TTITLE7=Further And Further Away
TTITLE8=Harley
TTITLE9=Love At The Five And Dime
TTITLE10=Love Travels
TTITLE11=Ready For The Storm
TTITLE12=Time Passed By
TTITLE13=Sending Me Angels
TTITLE14=Untold Stories
TTITLE15=Shut De Do
TTITLE16=Walking Away A Winner
TTITLE17=Standing Knee Deep In A River
TTITLE18=Where've You Been
EXTD=
EXTT0=
EXTT1=
EXTT2=
EXTT3=
EXTT4=
EXTT5=
EXTT6=
EXTT7=
EXTT8=
EXTT9=
EXTT10=
EXTT11=
EXTT12=
EXTT13=
EXTT14=
EXTT15=
EXTT16=
EXTT17=
EXTT18=
PLAYORDER=
